<svg viewBox="0 0 1024 1024" width="14px" height="14px">
              <path
                d="M883.640502 229.817249H139.689235a45.799295 45.799295 0 0 0 0 91.598589h743.951267a45.799295 45.799295 0 1 0 0-91.598589z"
                fill="#2c2c2c"
              ></path>
              <path
                d="M696.339444 267.408785a40.874639 40.874639 0 0 1-41.038795-41.038795 144.292401 144.292401 0 0 0-288.584803 0 41.038794 41.038794 0 0 1-82.077589 0 226.36999 226.36999 0 0 1 452.739981 0 41.038794 41.038794 0 0 1-41.038794 41.038795zM818.963362 932.237256a41.20295 41.20295 0 0 1-41.038795-41.20295L779.401964 311.894838a41.038794 41.038794 0 0 1 41.038794-41.038794 41.20295 41.20295 0 0 1 41.038795 41.038794l-1.477397 579.139468a41.038794 41.038794 0 0 1-41.038794 41.20295z"
                fill="#2c2c2c"
              ></path>
              <path
                d="M622.797924 734.101956a41.038794 41.038794 0 0 1-40.710484-41.367105l1.477396-187.793524a41.038794 41.038794 0 0 1 41.038795-40.710484 41.038794 41.038794 0 0 1 40.710484 41.367105l-1.477397 187.793524a41.038794 41.038794 0 0 1-41.038794 40.710484z"
                fill="#2c2c2c"
                opacity=".7"
              ></path>
              <path
                d="M407.754641 734.101956a41.038794 41.038794 0 0 1-40.710484-41.367105l1.477396-187.793524a41.038794 41.038794 0 0 1 41.038795-40.710484 41.038794 41.038794 0 0 1 40.710484 41.367105l-1.477397 187.793524a41.038794 41.038794 0 0 1-41.038794 40.710484z"
                fill="#2c2c2c"
                opacity=".7"
              ></path>
              <path
                d="M623.94701 1023.179224H400.039347A236.383456 236.383456 0 0 1 163.984202 786.959923L165.297443 311.894838a41.20295 41.20295 0 0 1 41.038795-41.038794 41.038794 41.038794 0 0 1 41.038794 41.038794l-1.313241 476.050016a154.141712 154.141712 0 0 0 153.977556 153.977557h223.907663a41.038794 41.038794 0 1 1 0 82.077589z"
                fill="#2c2c2c"
              ></path>
            </svg>