<svg viewBox="0 0 1024 1024" width="12px" height="12px">
              <path
                d="M640 1024a42.666667 42.666667 0 0 0 42.666667-42.666667V384a42.666667 42.666667 0 0 0-42.666667-42.666667H42.666667a42.666667 42.666667 0 0 0-42.666667 42.666667v597.333333a42.666667 42.666667 0 0 0 42.666667 42.666667h597.333333z m-42.666667-85.333333H85.333333V426.666667h512v512z"
                p-id="5257"
              ></path>
              <path
                d="M512 682.666667a42.666667 42.666667 0 0 1-42.666667 42.666666H213.333333a42.666667 42.666667 0 1 1 0-85.333333h256a42.666667 42.666667 0 0 1 42.666667 42.666667z"
                p-id="5258"
              ></path>
              <path
                d="M341.333333 512a42.666667 42.666667 0 0 1 42.666667 42.666667v256a42.666667 42.666667 0 1 1-85.333333 0v-256a42.666667 42.666667 0 0 1 42.666666-42.666667zM981.333333 682.666667a42.666667 42.666667 0 0 0 42.666667-42.666667V42.666667a42.666667 42.666667 0 0 0-42.666667-42.666667H384a42.666667 42.666667 0 0 0-42.666667 42.666667v170.666666a42.666667 42.666667 0 1 0 85.333334 0V85.333333h512v512h-106.666667a42.666667 42.666667 0 1 0 0 85.333334H981.333333z"
                p-id="5259"
              ></path>
            </svg>