<svg viewBox="0 0 1024 1024" width="0.9rem" height="0.9rem">
                  <path
                    d="M512.123 0.43c59.12 0 108.38 49.265 108.38 108.385s-49.265 108.39-108.38 108.39c-59.12 0-108.396-49.274-108.396-108.39C403.732 49.695 453.007 0.43 512.123 0.43z m0 400.712c59.12 0 108.38 49.264 108.38 108.385 0 59.13-49.265 108.39-108.38 108.39-59.12 0-108.396-49.264-108.396-108.39s49.28-108.385 108.396-108.385z m0 400.711c59.12 0 108.38 49.275 108.38 108.386 0 59.13-49.265 108.395-108.38 108.395-59.12 0-108.396-49.27-108.396-108.395 0.005-59.11 49.28-108.386 108.396-108.386z m0 0"
                    fill="#707070"
                  ></path>
                </svg>