<svg t="1733950461576" class="icon" viewBox="0 0 1024 1024" version="1.1" xmlns="http://www.w3.org/2000/svg" p-id="5069" width="50" height="50"><path d="M284.4 181.4c0.8 1.9 1.7 3.7 2.8 5.3 1.1 1.7 2.4 3.3 3.8 4.7 1.4 1.5 3 2.7 4.7 3.8 1.7 1.1 3.4 2.1 5.3 2.8 1.8 0.8 3.7 1.3 5.7 1.7 2 0.5 4 0.6 6 0.6s4-0.2 6-0.6c2-0.4 3.9-0.9 5.7-1.7 1.8-0.8 3.6-1.8 5.3-2.8 1.7-1.1 3.2-2.4 4.7-3.8 1.4-1.4 2.7-3 3.8-4.7 1.1-1.6 2-3.4 2.8-5.3 0.8-1.8 1.4-3.7 1.8-5.7 0.4-2 0.6-4 0.6-6 0-8-3.3-15.9-8.9-21.6-7.1-7.1-17.7-10.4-27.6-8.4-2 0.4-3.9 1-5.7 1.8-1.8 0.8-3.6 1.7-5.3 2.8-1.7 1.1-3.3 2.4-4.7 3.8-5.7 5.7-8.9 13.5-8.9 21.6 0 2.1 0.2 4 0.6 6 0.1 2 0.8 3.9 1.5 5.7z" fill="#bfbfbf" p-id="5070"></path><path d="M125.4 797.7c0 15.8 12.8 28.6 28.6 28.6h530.1L483 618.5 125.4 783.6v14.1z" fill="#bfbfbf" p-id="5071"></path><path d="M870.6 826.4c15.8 0 28.6-12.8 28.6-28.6V663.4l-213.3 77 83.2 86h101.5z" fill="#bfbfbf" p-id="5072"></path><path d="M870.6 139.2H402.4c-16.9 0-30.6 13.7-30.6 30.6s13.7 30.6 30.6 30.6h468.1c15.8 0 28.6 12.9 28.6 28.6v251.3l-255.7 97.4c-15.8 6-23.7 23.7-17.7 39.5 4.6 12.2 16.3 19.7 28.6 19.7 3.6 0 7.3-0.6 10.9-2l233.9-89.1V797.9c0 15.8-12.8 28.6-28.6 28.6H769.1l-83.2-86-280.6-290.3c-9.7-10-24.9-12.2-37-5.4l-243 136.8V229c0-15.8 12.8-28.6 28.6-28.6h66.9c16.9 0 30.6-13.7 30.6-30.6s-13.7-30.6-30.6-30.6H154c-49.5 0-89.8 40.3-89.8 89.8v568.7c0 49.5 40.3 89.8 89.8 89.8h716.6c49.5 0 89.8-40.3 89.8-89.8V229c0-49.5-40.3-89.8-89.8-89.8zM377.7 509.6L483 618.5l201.1 207.9H154c-15.8 0-28.6-12.8-28.6-28.6V651.7l252.3-142.1z" fill="#bfbfbf" p-id="5073"></path><path d="M755.5 366.1c0-59.9-48.8-108.7-108.7-108.7-59.9 0-108.7 48.8-108.7 108.7 0 59.9 48.8 108.7 108.7 108.7 59.9 0 108.7-48.7 108.7-108.7z m-156.3 0c0-26.2 21.3-47.6 47.6-47.6 26.2 0 47.6 21.3 47.6 47.6 0 26.2-21.3 47.6-47.6 47.6-26.2 0-47.6-21.3-47.6-47.6z" fill="#bfbfbf" p-id="5074"></path></svg>