<svg viewBox="0 0 1024 1024" version="1.1" xmlns="http://www.w3.org/2000/svg" p-id="3582" width="45" height="45"><path d="M704 0 960 256 704 256Z" p-id="3583" fill="#707070"></path><path d="M192 576 256 576 256 832 320 832 320 576 384 576 384 512 192 512Z" p-id="3584" fill="#707070"></path><path d="M768 512 768 576 832 576 832 832 896 832 896 576 960 576 960 512Z" p-id="3585" fill="#707070"></path><path d="M448 512l64 0 0 128-64 0 0-128Z" p-id="3586" fill="#707070"></path><path d="M640 512l64 0 0 128-64 0 0-128Z" p-id="3587" fill="#707070"></path><path d="M448 704l64 0 0 128-64 0 0-128Z" p-id="3588" fill="#707070"></path><path d="M640 704l64 0 0 128-64 0 0-128Z" p-id="3589" fill="#707070"></path><path d="M512 640l128 0 0 64-128 0 0-64Z" p-id="3590" fill="#707070"></path><path d="M960 448 128 448 128 64c0-35.392 28.672-64 64-64l448 0 0 320 320 0L960 448z" p-id="3591" fill="#707070"></path><path d="M960 960c0 35.392-28.608 64-64 64L192 1024c-35.328 0-64-28.608-64-64l0 0 0-64 832 0L960 960 960 960z" p-id="3592" fill="#707070"></path></svg>