<svg t="1732972185143" class="icon" viewBox="0 0 1024 1024" version="1.1" xmlns="http://www.w3.org/2000/svg" p-id="879" width="200" height="200"><path d="M911.57 324.4A35.76 35.76 0 0 0 885 312.55H468.23a35.71 35.71 0 0 0-35.31 41l52.83 351A159 159 0 0 0 379.52 664h-33V385.38H383a35 35 0 0 0 35-35V176.93a35 35 0 0 0-35-35H252.85a35 35 0 0 0-35 35v173.45a35 35 0 0 0 35 35h43.62V664h-36.08c-88 0-159.68 71.63-159.68 159.68v71.71h761.38l58.42-543.27a35.75 35.75 0 0 0-8.94-27.72zM267.85 191.93H368v143.45H267.85z m221.36 653.41h-338.5v-21.71A109.8 109.8 0 0 1 260.39 714h119.13a109.81 109.81 0 0 1 109.69 109.63z m68.31 0l-32.15-213.53h314.77l-23 213.53z m288-263.53H517.84l-33-219.26h384.25z" p-id="880"></path></svg>