<!-- export  -->
<svg viewBox="0 0 1024 1024" width="1rem" height="1rem">
  <path
    d="M133.3 645.3C59.7 645.3 0 585.6 0 512c0-73.6 59.7-133.3 133.3-133.3 73.6 0 133.3 59.7 133.3 133.3 0 73.6-59.7 133.3-133.3 133.3zM512 645.3c-73.6 0-133.3-59.7-133.3-133.3 0-73.6 59.7-133.3 133.3-133.3 73.6 0 133.3 59.7 133.3 133.3 0 73.6-59.7 133.3-133.3 133.3zM890.7 645.3c-73.6 0-133.3-59.7-133.3-133.3 0-73.6 59.7-133.3 133.3-133.3 73.6 0 133.3 59.7 133.3 133.3 0 73.6-59.7 133.3-133.3 133.3z"
    fill="#707070"
  ></path>
</svg>