 <svg viewBox="0 0 1024 1024" width="50px" height="50px">
        <path
          d="M128 128h768a42.666667 42.666667 0 0 1 42.666667 42.666667v682.666666a42.666667 42.666667 0 0 1-42.666667 42.666667H128a42.666667 42.666667 0 0 1-42.666667-42.666667V170.666667a42.666667 42.666667 0 0 1 42.666667-42.666667z m170.666667 533.333333v-170.666666l85.333333 85.333333 85.333333-85.333333v170.666666h85.333334v-298.666666h-85.333334l-85.333333 85.333333-85.333333-85.333333H213.333333v298.666666h85.333334z m469.333333-128v-170.666666h-85.333333v170.666666h-85.333334l128 128 128-128h-85.333333z"
          fill="#1296db"
        ></path>
      </svg>